<mxfile host="app.diagrams.net" modified="2023-04-07T10:04:36.844Z" agent="5.0 (Macintosh; Intel Mac OS X 10_15_7) AppleWebKit/537.36 (KHTML, like Gecko) Chrome/111.0.0.0 Safari/537.36" etag="sItO2hnrXNYXogDMy-wf" version="21.0.6" type="github">
  <diagram name="Page-1" id="0783ab3e-0a74-02c8-0abd-f7b4e66b4bec">
    <mxGraphModel dx="1885" dy="1051" grid="1" gridSize="10" guides="1" tooltips="1" connect="1" arrows="1" fold="1" page="1" pageScale="1" pageWidth="850" pageHeight="1100" background="none" math="0" shadow="0">
      <root>
        <mxCell id="0" />
        <mxCell id="1" parent="0" />
        <mxCell id="1c1d494c118603dd-1" value="Pool" style="swimlane;html=1;childLayout=stackLayout;startSize=20;rounded=0;shadow=0;comic=0;labelBackgroundColor=none;strokeWidth=1;fontFamily=Verdana;fontSize=12;align=center;" parent="1" vertex="1">
          <mxGeometry x="40" y="20" width="1020" height="990" as="geometry" />
        </mxCell>
        <mxCell id="1c1d494c118603dd-2" value="渠道方" style="swimlane;html=1;startSize=20;" parent="1c1d494c118603dd-1" vertex="1">
          <mxGeometry y="20" width="250" height="970" as="geometry" />
        </mxCell>
        <mxCell id="7dVzVwEmSAzXkPohGRhL-30" value="申请&lt;br&gt;接入" style="ellipse;whiteSpace=wrap;html=1;aspect=fixed;" vertex="1" parent="1c1d494c118603dd-2">
          <mxGeometry x="30" y="33" width="40" height="40" as="geometry" />
        </mxCell>
        <mxCell id="7dVzVwEmSAzXkPohGRhL-35" style="edgeStyle=orthogonalEdgeStyle;rounded=0;orthogonalLoop=1;jettySize=auto;html=1;exitX=0.5;exitY=1;exitDx=0;exitDy=0;" edge="1" parent="1c1d494c118603dd-2" source="7dVzVwEmSAzXkPohGRhL-32" target="7dVzVwEmSAzXkPohGRhL-34">
          <mxGeometry relative="1" as="geometry" />
        </mxCell>
        <mxCell id="7dVzVwEmSAzXkPohGRhL-32" value="新手指南" style="rounded=1;whiteSpace=wrap;html=1;shadow=0;comic=0;labelBackgroundColor=none;strokeWidth=1;fontFamily=Verdana;fontSize=12;align=center;arcSize=50;" vertex="1" parent="1c1d494c118603dd-2">
          <mxGeometry x="80" y="100" width="100" height="30" as="geometry" />
        </mxCell>
        <mxCell id="7dVzVwEmSAzXkPohGRhL-37" style="edgeStyle=orthogonalEdgeStyle;rounded=0;orthogonalLoop=1;jettySize=auto;html=1;" edge="1" parent="1c1d494c118603dd-2" source="7dVzVwEmSAzXkPohGRhL-34" target="7dVzVwEmSAzXkPohGRhL-36">
          <mxGeometry relative="1" as="geometry" />
        </mxCell>
        <mxCell id="7dVzVwEmSAzXkPohGRhL-34" value="业务文档" style="rounded=1;whiteSpace=wrap;html=1;shadow=0;comic=0;labelBackgroundColor=none;strokeWidth=1;fontFamily=Verdana;fontSize=12;align=center;arcSize=50;" vertex="1" parent="1c1d494c118603dd-2">
          <mxGeometry x="80" y="160" width="100" height="30" as="geometry" />
        </mxCell>
        <mxCell id="7dVzVwEmSAzXkPohGRhL-36" value="API调用指南" style="rounded=1;whiteSpace=wrap;html=1;shadow=0;comic=0;labelBackgroundColor=none;strokeWidth=1;fontFamily=Verdana;fontSize=12;align=center;arcSize=50;" vertex="1" parent="1c1d494c118603dd-2">
          <mxGeometry x="80" y="220" width="100" height="30" as="geometry" />
        </mxCell>
        <mxCell id="7dVzVwEmSAzXkPohGRhL-49" value="申请上线" style="rounded=1;whiteSpace=wrap;html=1;shadow=0;comic=0;labelBackgroundColor=none;strokeWidth=1;fontFamily=Verdana;fontSize=12;align=center;arcSize=50;" vertex="1" parent="1c1d494c118603dd-2">
          <mxGeometry x="80" y="280" width="100" height="30" as="geometry" />
        </mxCell>
        <mxCell id="7dVzVwEmSAzXkPohGRhL-58" style="edgeStyle=orthogonalEdgeStyle;rounded=0;orthogonalLoop=1;jettySize=auto;html=1;exitX=0.5;exitY=1;exitDx=0;exitDy=0;" edge="1" parent="1c1d494c118603dd-2" source="7dVzVwEmSAzXkPohGRhL-56" target="60571a20871a0731-5">
          <mxGeometry relative="1" as="geometry" />
        </mxCell>
        <mxCell id="7dVzVwEmSAzXkPohGRhL-56" value="功能验证" style="rounded=1;whiteSpace=wrap;html=1;shadow=0;comic=0;labelBackgroundColor=none;strokeWidth=1;fontFamily=Verdana;fontSize=12;align=center;arcSize=50;" vertex="1" parent="1c1d494c118603dd-2">
          <mxGeometry x="80" y="390" width="100" height="30" as="geometry" />
        </mxCell>
        <mxCell id="60571a20871a0731-5" value="" style="shape=mxgraph.bpmn.shape;html=1;verticalLabelPosition=bottom;labelBackgroundColor=#ffffff;verticalAlign=top;perimeter=ellipsePerimeter;outline=end;symbol=terminate;rounded=0;shadow=0;comic=0;strokeWidth=1;fontFamily=Verdana;fontSize=12;align=center;" parent="1c1d494c118603dd-2" vertex="1">
          <mxGeometry x="110" y="450" width="40" height="40" as="geometry" />
        </mxCell>
        <mxCell id="7dVzVwEmSAzXkPohGRhL-59" value="创建&lt;br&gt;工单" style="ellipse;whiteSpace=wrap;html=1;aspect=fixed;" vertex="1" parent="1c1d494c118603dd-2">
          <mxGeometry x="105" y="540" width="40" height="40" as="geometry" />
        </mxCell>
        <mxCell id="7dVzVwEmSAzXkPohGRhL-106" value="" style="shape=mxgraph.bpmn.shape;html=1;verticalLabelPosition=bottom;labelBackgroundColor=#ffffff;verticalAlign=top;perimeter=ellipsePerimeter;outline=end;symbol=terminate;rounded=0;shadow=0;comic=0;strokeWidth=1;fontFamily=Verdana;fontSize=12;align=center;" vertex="1" parent="1c1d494c118603dd-2">
          <mxGeometry x="105" y="620" width="40" height="40" as="geometry" />
        </mxCell>
        <mxCell id="1c1d494c118603dd-3" value="业务方" style="swimlane;html=1;startSize=20;" parent="1c1d494c118603dd-1" vertex="1">
          <mxGeometry x="250" y="20" width="250" height="970" as="geometry" />
        </mxCell>
        <mxCell id="60571a20871a0731-8" value="创建账号" style="rounded=1;whiteSpace=wrap;html=1;shadow=0;comic=0;labelBackgroundColor=none;strokeWidth=1;fontFamily=Verdana;fontSize=12;align=center;arcSize=50;" parent="1c1d494c118603dd-3" vertex="1">
          <mxGeometry x="50" y="38" width="100" height="30" as="geometry" />
        </mxCell>
        <mxCell id="7dVzVwEmSAzXkPohGRhL-51" value="业务审核" style="rounded=1;whiteSpace=wrap;html=1;shadow=0;comic=0;labelBackgroundColor=none;strokeWidth=1;fontFamily=Verdana;fontSize=12;align=center;arcSize=50;" vertex="1" parent="1c1d494c118603dd-3">
          <mxGeometry x="75" y="340" width="100" height="30" as="geometry" />
        </mxCell>
        <mxCell id="7dVzVwEmSAzXkPohGRhL-61" value="业务处理" style="rhombus;whiteSpace=wrap;html=1;" vertex="1" parent="1c1d494c118603dd-3">
          <mxGeometry x="85" y="545" width="80" height="30" as="geometry" />
        </mxCell>
        <mxCell id="1c1d494c118603dd-4" value="技术" style="swimlane;html=1;startSize=20;" parent="1c1d494c118603dd-1" vertex="1">
          <mxGeometry x="500" y="20" width="270" height="970" as="geometry" />
        </mxCell>
        <mxCell id="1c1d494c118603dd-44" style="edgeStyle=none;rounded=0;html=1;labelBackgroundColor=none;startArrow=none;startFill=0;startSize=5;endArrow=classicThin;endFill=1;endSize=5;jettySize=auto;orthogonalLoop=1;strokeWidth=1;fontFamily=Verdana;fontSize=12" parent="1c1d494c118603dd-4" target="1c1d494c118603dd-19" edge="1">
          <mxGeometry relative="1" as="geometry">
            <mxPoint x="120" y="700" as="sourcePoint" />
          </mxGeometry>
        </mxCell>
        <mxCell id="1c1d494c118603dd-56" style="edgeStyle=none;rounded=0;html=1;dashed=1;labelBackgroundColor=none;startArrow=none;startFill=0;startSize=5;endArrow=oval;endFill=0;endSize=5;jettySize=auto;orthogonalLoop=1;strokeWidth=1;fontFamily=Verdana;fontSize=12" parent="1c1d494c118603dd-4" target="1c1d494c118603dd-18" edge="1">
          <mxGeometry relative="1" as="geometry">
            <mxPoint x="156.96428571428578" y="640" as="sourcePoint" />
          </mxGeometry>
        </mxCell>
        <mxCell id="1c1d494c118603dd-58" style="edgeStyle=none;rounded=0;html=1;dashed=1;labelBackgroundColor=none;startArrow=none;startFill=0;startSize=5;endArrow=oval;endFill=0;endSize=5;jettySize=auto;orthogonalLoop=1;strokeWidth=1;fontFamily=Verdana;fontSize=12" parent="1c1d494c118603dd-4" target="1c1d494c118603dd-19" edge="1">
          <mxGeometry relative="1" as="geometry">
            <mxPoint x="169.5999999999999" y="785" as="sourcePoint" />
          </mxGeometry>
        </mxCell>
        <mxCell id="7dVzVwEmSAzXkPohGRhL-42" style="edgeStyle=orthogonalEdgeStyle;rounded=0;orthogonalLoop=1;jettySize=auto;html=1;exitX=0.5;exitY=1;exitDx=0;exitDy=0;" edge="1" parent="1c1d494c118603dd-4" source="7dVzVwEmSAzXkPohGRhL-38" target="7dVzVwEmSAzXkPohGRhL-40">
          <mxGeometry relative="1" as="geometry" />
        </mxCell>
        <mxCell id="7dVzVwEmSAzXkPohGRhL-38" value="签名辅助工具" style="rounded=1;whiteSpace=wrap;html=1;shadow=0;comic=0;labelBackgroundColor=none;strokeWidth=1;fontFamily=Verdana;fontSize=12;align=center;arcSize=50;" vertex="1" parent="1c1d494c118603dd-4">
          <mxGeometry x="70" y="220" width="100" height="30" as="geometry" />
        </mxCell>
        <mxCell id="7dVzVwEmSAzXkPohGRhL-40" value="API联调" style="rounded=1;whiteSpace=wrap;html=1;shadow=0;comic=0;labelBackgroundColor=none;strokeWidth=1;fontFamily=Verdana;fontSize=12;align=center;arcSize=50;" vertex="1" parent="1c1d494c118603dd-4">
          <mxGeometry x="70" y="280" width="100" height="30" as="geometry" />
        </mxCell>
        <mxCell id="7dVzVwEmSAzXkPohGRhL-53" value="生产环境上线" style="rounded=1;whiteSpace=wrap;html=1;shadow=0;comic=0;labelBackgroundColor=none;strokeWidth=1;fontFamily=Verdana;fontSize=12;align=center;arcSize=50;" vertex="1" parent="1c1d494c118603dd-4">
          <mxGeometry x="75" y="340" width="100" height="30" as="geometry" />
        </mxCell>
        <mxCell id="7dVzVwEmSAzXkPohGRhL-103" value="技术处理" style="rhombus;whiteSpace=wrap;html=1;" vertex="1" parent="1c1d494c118603dd-4">
          <mxGeometry x="90" y="620" width="80" height="40" as="geometry" />
        </mxCell>
        <mxCell id="7dVzVwEmSAzXkPohGRhL-31" style="edgeStyle=orthogonalEdgeStyle;rounded=0;orthogonalLoop=1;jettySize=auto;html=1;exitX=1;exitY=0.5;exitDx=0;exitDy=0;entryX=0;entryY=0.5;entryDx=0;entryDy=0;" edge="1" parent="1c1d494c118603dd-1" source="7dVzVwEmSAzXkPohGRhL-30" target="60571a20871a0731-8">
          <mxGeometry relative="1" as="geometry" />
        </mxCell>
        <mxCell id="7dVzVwEmSAzXkPohGRhL-33" style="edgeStyle=orthogonalEdgeStyle;rounded=0;orthogonalLoop=1;jettySize=auto;html=1;exitX=0.5;exitY=1;exitDx=0;exitDy=0;entryX=1;entryY=0.5;entryDx=0;entryDy=0;" edge="1" parent="1c1d494c118603dd-1" source="60571a20871a0731-8" target="7dVzVwEmSAzXkPohGRhL-32">
          <mxGeometry relative="1" as="geometry" />
        </mxCell>
        <mxCell id="7dVzVwEmSAzXkPohGRhL-48" style="edgeStyle=orthogonalEdgeStyle;rounded=0;orthogonalLoop=1;jettySize=auto;html=1;exitX=1;exitY=0.5;exitDx=0;exitDy=0;" edge="1" parent="1c1d494c118603dd-1" source="7dVzVwEmSAzXkPohGRhL-36" target="7dVzVwEmSAzXkPohGRhL-38">
          <mxGeometry relative="1" as="geometry" />
        </mxCell>
        <mxCell id="7dVzVwEmSAzXkPohGRhL-50" style="edgeStyle=orthogonalEdgeStyle;rounded=0;orthogonalLoop=1;jettySize=auto;html=1;" edge="1" parent="1c1d494c118603dd-1" source="7dVzVwEmSAzXkPohGRhL-40" target="7dVzVwEmSAzXkPohGRhL-49">
          <mxGeometry relative="1" as="geometry" />
        </mxCell>
        <mxCell id="7dVzVwEmSAzXkPohGRhL-52" style="edgeStyle=orthogonalEdgeStyle;rounded=0;orthogonalLoop=1;jettySize=auto;html=1;exitX=0.5;exitY=1;exitDx=0;exitDy=0;entryX=0;entryY=0.5;entryDx=0;entryDy=0;" edge="1" parent="1c1d494c118603dd-1" source="7dVzVwEmSAzXkPohGRhL-49" target="7dVzVwEmSAzXkPohGRhL-51">
          <mxGeometry relative="1" as="geometry" />
        </mxCell>
        <mxCell id="7dVzVwEmSAzXkPohGRhL-54" style="edgeStyle=orthogonalEdgeStyle;rounded=0;orthogonalLoop=1;jettySize=auto;html=1;entryX=0;entryY=0.5;entryDx=0;entryDy=0;" edge="1" parent="1c1d494c118603dd-1" source="7dVzVwEmSAzXkPohGRhL-51" target="7dVzVwEmSAzXkPohGRhL-53">
          <mxGeometry relative="1" as="geometry" />
        </mxCell>
        <mxCell id="7dVzVwEmSAzXkPohGRhL-57" style="edgeStyle=orthogonalEdgeStyle;rounded=0;orthogonalLoop=1;jettySize=auto;html=1;exitX=0.5;exitY=1;exitDx=0;exitDy=0;entryX=1;entryY=0.5;entryDx=0;entryDy=0;" edge="1" parent="1c1d494c118603dd-1" source="7dVzVwEmSAzXkPohGRhL-53" target="7dVzVwEmSAzXkPohGRhL-56">
          <mxGeometry relative="1" as="geometry" />
        </mxCell>
        <mxCell id="7dVzVwEmSAzXkPohGRhL-44" style="edgeStyle=orthogonalEdgeStyle;rounded=0;orthogonalLoop=1;jettySize=auto;html=1;exitX=1;exitY=0.5;exitDx=0;exitDy=0;" edge="1" parent="1c1d494c118603dd-1" source="60571a20871a0731-8" target="7dVzVwEmSAzXkPohGRhL-43">
          <mxGeometry relative="1" as="geometry" />
        </mxCell>
        <mxCell id="7dVzVwEmSAzXkPohGRhL-47" style="edgeStyle=orthogonalEdgeStyle;rounded=0;orthogonalLoop=1;jettySize=auto;html=1;" edge="1" parent="1c1d494c118603dd-1" source="7dVzVwEmSAzXkPohGRhL-45" target="7dVzVwEmSAzXkPohGRhL-38">
          <mxGeometry relative="1" as="geometry" />
        </mxCell>
        <mxCell id="7dVzVwEmSAzXkPohGRhL-1" value="运维" style="swimlane;html=1;startSize=20;" vertex="1" parent="1c1d494c118603dd-1">
          <mxGeometry x="770" y="20" width="250" height="970" as="geometry" />
        </mxCell>
        <mxCell id="7dVzVwEmSAzXkPohGRhL-46" style="edgeStyle=orthogonalEdgeStyle;rounded=0;orthogonalLoop=1;jettySize=auto;html=1;exitX=0.5;exitY=1;exitDx=0;exitDy=0;" edge="1" parent="7dVzVwEmSAzXkPohGRhL-1" source="7dVzVwEmSAzXkPohGRhL-43" target="7dVzVwEmSAzXkPohGRhL-45">
          <mxGeometry relative="1" as="geometry" />
        </mxCell>
        <mxCell id="7dVzVwEmSAzXkPohGRhL-43" value="开通网络白名单" style="rounded=1;whiteSpace=wrap;html=1;shadow=0;comic=0;labelBackgroundColor=none;strokeWidth=1;fontFamily=Verdana;fontSize=12;align=center;arcSize=50;" vertex="1" parent="7dVzVwEmSAzXkPohGRhL-1">
          <mxGeometry x="75" y="38" width="100" height="30" as="geometry" />
        </mxCell>
        <mxCell id="7dVzVwEmSAzXkPohGRhL-45" value="开通网络策略" style="rounded=1;whiteSpace=wrap;html=1;shadow=0;comic=0;labelBackgroundColor=none;strokeWidth=1;fontFamily=Verdana;fontSize=12;align=center;arcSize=50;" vertex="1" parent="7dVzVwEmSAzXkPohGRhL-1">
          <mxGeometry x="75" y="100" width="100" height="30" as="geometry" />
        </mxCell>
        <mxCell id="7dVzVwEmSAzXkPohGRhL-102" value="运维处理" style="rhombus;whiteSpace=wrap;html=1;" vertex="1" parent="7dVzVwEmSAzXkPohGRhL-1">
          <mxGeometry x="95" y="540" width="80" height="40" as="geometry" />
        </mxCell>
        <mxCell id="7dVzVwEmSAzXkPohGRhL-62" style="edgeStyle=orthogonalEdgeStyle;rounded=0;orthogonalLoop=1;jettySize=auto;html=1;exitX=1;exitY=0.5;exitDx=0;exitDy=0;" edge="1" parent="1c1d494c118603dd-1" source="7dVzVwEmSAzXkPohGRhL-59" target="7dVzVwEmSAzXkPohGRhL-61">
          <mxGeometry relative="1" as="geometry" />
        </mxCell>
        <mxCell id="7dVzVwEmSAzXkPohGRhL-104" style="edgeStyle=orthogonalEdgeStyle;rounded=0;orthogonalLoop=1;jettySize=auto;html=1;entryX=0.063;entryY=0.5;entryDx=0;entryDy=0;entryPerimeter=0;" edge="1" parent="1c1d494c118603dd-1" source="7dVzVwEmSAzXkPohGRhL-61" target="7dVzVwEmSAzXkPohGRhL-102">
          <mxGeometry relative="1" as="geometry" />
        </mxCell>
        <mxCell id="7dVzVwEmSAzXkPohGRhL-105" value="否" style="edgeLabel;html=1;align=center;verticalAlign=middle;resizable=0;points=[];" vertex="1" connectable="0" parent="7dVzVwEmSAzXkPohGRhL-104">
          <mxGeometry x="-0.2899" y="3" relative="1" as="geometry">
            <mxPoint as="offset" />
          </mxGeometry>
        </mxCell>
        <mxCell id="7dVzVwEmSAzXkPohGRhL-107" style="edgeStyle=orthogonalEdgeStyle;rounded=0;orthogonalLoop=1;jettySize=auto;html=1;entryX=1;entryY=0.5;entryDx=0;entryDy=0;exitX=0.5;exitY=1;exitDx=0;exitDy=0;" edge="1" parent="1c1d494c118603dd-1" source="7dVzVwEmSAzXkPohGRhL-61" target="7dVzVwEmSAzXkPohGRhL-106">
          <mxGeometry relative="1" as="geometry">
            <mxPoint x="370" y="600" as="sourcePoint" />
          </mxGeometry>
        </mxCell>
        <mxCell id="7dVzVwEmSAzXkPohGRhL-108" value="是" style="edgeLabel;html=1;align=center;verticalAlign=middle;resizable=0;points=[];" vertex="1" connectable="0" parent="7dVzVwEmSAzXkPohGRhL-107">
          <mxGeometry x="-0.1191" relative="1" as="geometry">
            <mxPoint as="offset" />
          </mxGeometry>
        </mxCell>
        <mxCell id="7dVzVwEmSAzXkPohGRhL-110" style="edgeStyle=orthogonalEdgeStyle;rounded=0;orthogonalLoop=1;jettySize=auto;html=1;exitX=0.5;exitY=1;exitDx=0;exitDy=0;entryX=1;entryY=0.5;entryDx=0;entryDy=0;" edge="1" parent="1c1d494c118603dd-1" source="7dVzVwEmSAzXkPohGRhL-102" target="7dVzVwEmSAzXkPohGRhL-103">
          <mxGeometry relative="1" as="geometry" />
        </mxCell>
        <mxCell id="7dVzVwEmSAzXkPohGRhL-113" value="否" style="edgeLabel;html=1;align=center;verticalAlign=middle;resizable=0;points=[];" vertex="1" connectable="0" parent="7dVzVwEmSAzXkPohGRhL-110">
          <mxGeometry x="-0.0303" y="1" relative="1" as="geometry">
            <mxPoint as="offset" />
          </mxGeometry>
        </mxCell>
        <mxCell id="7dVzVwEmSAzXkPohGRhL-111" style="edgeStyle=orthogonalEdgeStyle;rounded=0;orthogonalLoop=1;jettySize=auto;html=1;exitX=0.5;exitY=0;exitDx=0;exitDy=0;entryX=0.5;entryY=0;entryDx=0;entryDy=0;" edge="1" parent="1c1d494c118603dd-1" source="7dVzVwEmSAzXkPohGRhL-102" target="7dVzVwEmSAzXkPohGRhL-61">
          <mxGeometry relative="1" as="geometry" />
        </mxCell>
        <mxCell id="7dVzVwEmSAzXkPohGRhL-112" value="是" style="edgeLabel;html=1;align=center;verticalAlign=middle;resizable=0;points=[];" vertex="1" connectable="0" parent="7dVzVwEmSAzXkPohGRhL-111">
          <mxGeometry x="0.0293" y="-2" relative="1" as="geometry">
            <mxPoint as="offset" />
          </mxGeometry>
        </mxCell>
        <mxCell id="7dVzVwEmSAzXkPohGRhL-116" style="edgeStyle=orthogonalEdgeStyle;rounded=0;orthogonalLoop=1;jettySize=auto;html=1;" edge="1" parent="1c1d494c118603dd-1" source="7dVzVwEmSAzXkPohGRhL-103" target="7dVzVwEmSAzXkPohGRhL-61">
          <mxGeometry relative="1" as="geometry" />
        </mxCell>
        <mxCell id="7dVzVwEmSAzXkPohGRhL-117" value="是" style="edgeLabel;html=1;align=center;verticalAlign=middle;resizable=0;points=[];" vertex="1" connectable="0" parent="7dVzVwEmSAzXkPohGRhL-116">
          <mxGeometry x="-0.2101" y="-2" relative="1" as="geometry">
            <mxPoint as="offset" />
          </mxGeometry>
        </mxCell>
      </root>
    </mxGraphModel>
  </diagram>
</mxfile>
